<svg width="118" height="145" viewBox="0 0 118 145" fill="none" xmlns="http://www.w3.org/2000/svg">
<path d="M3.94456 141.97C4.0379 142.39 4.21056 142.721 4.46256 142.964C4.71456 143.207 5.06456 143.328 5.51256 143.328C5.87656 143.328 6.17056 143.258 6.39456 143.118C6.6279 142.969 6.80523 142.782 6.92656 142.558C7.05723 142.325 7.1459 142.063 7.19256 141.774C7.23923 141.475 7.26256 141.172 7.26256 140.864V134.088H8.27056V141.284C8.27056 141.62 8.2239 141.965 8.13056 142.32C8.04656 142.665 7.89256 142.983 7.66856 143.272C7.4539 143.552 7.16923 143.785 6.81456 143.972C6.4599 144.159 6.01656 144.252 5.48456 144.252C4.80323 144.252 4.2339 144.079 3.77656 143.734C3.31923 143.379 3.03456 142.861 2.92256 142.18L3.94456 141.97Z" fill="#1D1C5C"/>
<path d="M15.5845 140.22C15.5845 139.595 15.3978 139.091 15.0245 138.708C14.6511 138.316 14.1285 138.12 13.4565 138.12C13.1578 138.12 12.8685 138.181 12.5885 138.302C12.3085 138.414 12.0611 138.568 11.8465 138.764C11.6411 138.96 11.4731 139.184 11.3425 139.436C11.2211 139.688 11.1605 139.949 11.1605 140.22H15.5845ZM11.1325 140.976C11.1605 141.303 11.2398 141.611 11.3705 141.9C11.5011 142.189 11.6738 142.441 11.8885 142.656C12.1031 142.861 12.3505 143.025 12.6305 143.146C12.9105 143.267 13.2138 143.328 13.5405 143.328C14.0351 143.328 14.4598 143.216 14.8145 142.992C15.1785 142.759 15.4538 142.493 15.6405 142.194L16.3545 142.782C15.9625 143.277 15.5285 143.631 15.0525 143.846C14.5858 144.061 14.0818 144.168 13.5405 144.168C13.0551 144.168 12.6025 144.084 12.1825 143.916C11.7718 143.739 11.4171 143.496 11.1185 143.188C10.8198 142.88 10.5818 142.516 10.4045 142.096C10.2365 141.676 10.1525 141.219 10.1525 140.724C10.1525 140.229 10.2365 139.772 10.4045 139.352C10.5725 138.932 10.8058 138.568 11.1045 138.26C11.4031 137.952 11.7531 137.714 12.1545 137.546C12.5558 137.369 12.9898 137.28 13.4565 137.28C13.9511 137.28 14.3945 137.369 14.7865 137.546C15.1785 137.723 15.5051 137.961 15.7665 138.26C16.0371 138.549 16.2425 138.895 16.3825 139.296C16.5225 139.688 16.5925 140.108 16.5925 140.556V140.976H11.1325Z" fill="#1D1C5C"/>
<path d="M19.1498 137.448C19.1684 137.625 19.1778 137.803 19.1778 137.98C19.1871 138.148 19.1918 138.321 19.1918 138.498H19.2198C19.3224 138.321 19.4531 138.157 19.6118 138.008C19.7704 137.859 19.9478 137.733 20.1438 137.63C20.3398 137.518 20.5451 137.434 20.7598 137.378C20.9838 137.313 21.2031 137.28 21.4178 137.28C22.2578 137.28 22.8784 137.504 23.2798 137.952C23.6811 138.391 23.8818 139.021 23.8818 139.842V144H22.9578V140.374C22.9578 139.646 22.8318 139.091 22.5798 138.708C22.3278 138.316 21.8611 138.12 21.1798 138.12C21.1331 138.12 21.0024 138.139 20.7878 138.176C20.5731 138.213 20.3444 138.316 20.1018 138.484C19.8684 138.652 19.6584 138.904 19.4718 139.24C19.2851 139.576 19.1918 140.043 19.1918 140.64V144H18.2678V138.89C18.2678 138.713 18.2584 138.489 18.2398 138.218C18.2304 137.947 18.2164 137.691 18.1978 137.448H19.1498Z" fill="#1D1C5C"/>
<path d="M26.9291 137.448C26.9477 137.625 26.9571 137.803 26.9571 137.98C26.9664 138.148 26.9711 138.321 26.9711 138.498H26.9991C27.1017 138.321 27.2324 138.157 27.3911 138.008C27.5497 137.859 27.7271 137.733 27.9231 137.63C28.1191 137.518 28.3244 137.434 28.5391 137.378C28.7631 137.313 28.9824 137.28 29.1971 137.28C30.0371 137.28 30.6577 137.504 31.0591 137.952C31.4604 138.391 31.6611 139.021 31.6611 139.842V144H30.7371V140.374C30.7371 139.646 30.6111 139.091 30.3591 138.708C30.1071 138.316 29.6404 138.12 28.9591 138.12C28.9124 138.12 28.7817 138.139 28.5671 138.176C28.3524 138.213 28.1237 138.316 27.8811 138.484C27.6477 138.652 27.4377 138.904 27.2511 139.24C27.0644 139.576 26.9711 140.043 26.9711 140.64V144H26.0471V138.89C26.0471 138.713 26.0377 138.489 26.0191 138.218C26.0097 137.947 25.9957 137.691 25.9771 137.448H26.9291Z" fill="#1D1C5C"/>
<path d="M37.5504 140.738C37.317 140.738 37.023 140.752 36.6684 140.78C36.323 140.799 35.987 140.855 35.6604 140.948C35.343 141.032 35.0677 141.167 34.8344 141.354C34.6104 141.541 34.4984 141.797 34.4984 142.124C34.4984 142.339 34.5404 142.525 34.6244 142.684C34.7177 142.833 34.839 142.959 34.9884 143.062C35.1377 143.155 35.301 143.225 35.4784 143.272C35.665 143.309 35.8517 143.328 36.0384 143.328C36.3744 143.328 36.6637 143.272 36.9064 143.16C37.1584 143.048 37.3684 142.899 37.5364 142.712C37.7044 142.516 37.8257 142.292 37.9004 142.04C37.9844 141.779 38.0264 141.503 38.0264 141.214V140.738H37.5504ZM38.0264 139.982V139.814C38.0264 138.685 37.4664 138.12 36.3464 138.12C35.581 138.12 34.9137 138.377 34.3444 138.89L33.7844 138.232C34.4004 137.597 35.3244 137.28 36.5564 137.28C36.8737 137.28 37.177 137.327 37.4664 137.42C37.765 137.513 38.0217 137.658 38.2364 137.854C38.451 138.041 38.6237 138.279 38.7544 138.568C38.885 138.857 38.9504 139.203 38.9504 139.604V142.53C38.9504 142.782 38.9597 143.048 38.9784 143.328C39.0064 143.599 39.0344 143.823 39.0624 144H38.1664C38.1384 143.841 38.115 143.669 38.0964 143.482C38.087 143.295 38.0824 143.113 38.0824 142.936H38.0544C37.7837 143.375 37.4617 143.692 37.0884 143.888C36.7244 144.075 36.2764 144.168 35.7444 144.168C35.455 144.168 35.175 144.126 34.9044 144.042C34.6337 143.967 34.391 143.851 34.1764 143.692C33.971 143.524 33.803 143.323 33.6724 143.09C33.551 142.847 33.4904 142.567 33.4904 142.25C33.4904 141.718 33.6257 141.303 33.8964 141.004C34.1764 140.696 34.5217 140.467 34.9324 140.318C35.3524 140.169 35.7957 140.075 36.2624 140.038C36.7384 140.001 37.1724 139.982 37.5644 139.982H38.0264Z" fill="#1D1C5C"/>
<path d="M45.1926 141.97C45.2859 142.39 45.4586 142.721 45.7106 142.964C45.9626 143.207 46.3126 143.328 46.7606 143.328C47.1246 143.328 47.4186 143.258 47.6426 143.118C47.8759 142.969 48.0533 142.782 48.1746 142.558C48.3053 142.325 48.3939 142.063 48.4406 141.774C48.4873 141.475 48.5106 141.172 48.5106 140.864V134.088H49.5186V141.284C49.5186 141.62 49.4719 141.965 49.3786 142.32C49.2946 142.665 49.1406 142.983 48.9166 143.272C48.7019 143.552 48.4173 143.785 48.0626 143.972C47.7079 144.159 47.2646 144.252 46.7326 144.252C46.0513 144.252 45.4819 144.079 45.0246 143.734C44.5673 143.379 44.2826 142.861 44.1706 142.18L45.1926 141.97Z" fill="#1D1C5C"/>
<path d="M55.4605 140.738C55.2272 140.738 54.9332 140.752 54.5785 140.78C54.2332 140.799 53.8972 140.855 53.5705 140.948C53.2532 141.032 52.9778 141.167 52.7445 141.354C52.5205 141.541 52.4085 141.797 52.4085 142.124C52.4085 142.339 52.4505 142.525 52.5345 142.684C52.6278 142.833 52.7492 142.959 52.8985 143.062C53.0478 143.155 53.2112 143.225 53.3885 143.272C53.5752 143.309 53.7618 143.328 53.9485 143.328C54.2845 143.328 54.5738 143.272 54.8165 143.16C55.0685 143.048 55.2785 142.899 55.4465 142.712C55.6145 142.516 55.7358 142.292 55.8105 142.04C55.8945 141.779 55.9365 141.503 55.9365 141.214V140.738H55.4605ZM55.9365 139.982V139.814C55.9365 138.685 55.3765 138.12 54.2565 138.12C53.4912 138.12 52.8238 138.377 52.2545 138.89L51.6945 138.232C52.3105 137.597 53.2345 137.28 54.4665 137.28C54.7838 137.28 55.0872 137.327 55.3765 137.42C55.6752 137.513 55.9318 137.658 56.1465 137.854C56.3612 138.041 56.5338 138.279 56.6645 138.568C56.7952 138.857 56.8605 139.203 56.8605 139.604V142.53C56.8605 142.782 56.8698 143.048 56.8885 143.328C56.9165 143.599 56.9445 143.823 56.9725 144H56.0765C56.0485 143.841 56.0252 143.669 56.0065 143.482C55.9972 143.295 55.9925 143.113 55.9925 142.936H55.9645C55.6938 143.375 55.3718 143.692 54.9985 143.888C54.6345 144.075 54.1865 144.168 53.6545 144.168C53.3652 144.168 53.0852 144.126 52.8145 144.042C52.5438 143.967 52.3012 143.851 52.0865 143.692C51.8812 143.524 51.7132 143.323 51.5825 143.09C51.4612 142.847 51.4005 142.567 51.4005 142.25C51.4005 141.718 51.5358 141.303 51.8065 141.004C52.0865 140.696 52.4318 140.467 52.8425 140.318C53.2625 140.169 53.7058 140.075 54.1725 140.038C54.6485 140.001 55.0825 139.982 55.4745 139.982H55.9365Z" fill="#1D1C5C"/>
<path d="M59.2763 137.448L60.7883 142.768H60.8163L62.5663 137.448H63.5183L65.2683 142.768H65.2963L66.8083 137.448H67.9003L65.8283 144H64.7923L63.0563 138.624H63.0283L61.2923 144H60.2563L58.1843 137.448H59.2763Z" fill="#1D1C5C"/>
<path d="M74.7138 140.724C74.7138 140.36 74.6531 140.019 74.5318 139.702C74.4198 139.385 74.2565 139.109 74.0418 138.876C73.8271 138.643 73.5658 138.461 73.2578 138.33C72.9591 138.19 72.6185 138.12 72.2358 138.12C71.8531 138.12 71.5078 138.19 71.1998 138.33C70.9011 138.461 70.6445 138.643 70.4298 138.876C70.2245 139.109 70.0611 139.385 69.9398 139.702C69.8278 140.019 69.7718 140.36 69.7718 140.724C69.7718 141.088 69.8278 141.429 69.9398 141.746C70.0611 142.063 70.2245 142.339 70.4298 142.572C70.6445 142.805 70.9011 142.992 71.1998 143.132C71.5078 143.263 71.8531 143.328 72.2358 143.328C72.6185 143.328 72.9591 143.263 73.2578 143.132C73.5658 142.992 73.8271 142.805 74.0418 142.572C74.2565 142.339 74.4198 142.063 74.5318 141.746C74.6531 141.429 74.7138 141.088 74.7138 140.724ZM75.7218 140.724C75.7218 141.219 75.6331 141.676 75.4558 142.096C75.2878 142.516 75.0498 142.88 74.7418 143.188C74.4338 143.496 74.0651 143.739 73.6358 143.916C73.2158 144.084 72.7491 144.168 72.2358 144.168C71.7318 144.168 71.2651 144.084 70.8358 143.916C70.4158 143.739 70.0518 143.496 69.7438 143.188C69.4358 142.88 69.1931 142.516 69.0158 142.096C68.8478 141.676 68.7638 141.219 68.7638 140.724C68.7638 140.229 68.8478 139.772 69.0158 139.352C69.1931 138.932 69.4358 138.568 69.7438 138.26C70.0518 137.952 70.4158 137.714 70.8358 137.546C71.2651 137.369 71.7318 137.28 72.2358 137.28C72.7491 137.28 73.2158 137.369 73.6358 137.546C74.0651 137.714 74.4338 137.952 74.7418 138.26C75.0498 138.568 75.2878 138.932 75.4558 139.352C75.6331 139.772 75.7218 140.229 75.7218 140.724Z" fill="#1D1C5C"/>
<path d="M77.4966 139.492C77.4966 139.203 77.4873 138.909 77.4686 138.61C77.4593 138.311 77.45 137.924 77.4406 137.448H78.3506V138.666H78.3786C78.444 138.489 78.5373 138.321 78.6586 138.162C78.78 137.994 78.9246 137.845 79.0926 137.714C79.27 137.583 79.4706 137.481 79.6946 137.406C79.928 137.322 80.1893 137.28 80.4786 137.28C80.74 137.28 80.9686 137.308 81.1646 137.364L80.9826 138.274C80.8613 138.227 80.684 138.204 80.4506 138.204C80.096 138.204 79.7926 138.274 79.5406 138.414C79.2886 138.545 79.0786 138.717 78.9106 138.932C78.7426 139.137 78.6166 139.361 78.5326 139.604C78.458 139.847 78.4206 140.08 78.4206 140.304V144H77.4966V139.492Z" fill="#1D1C5C"/>
<path d="M87.415 140.724C87.415 140.36 87.3543 140.019 87.233 139.702C87.121 139.385 86.9576 139.109 86.743 138.876C86.5283 138.643 86.267 138.461 85.959 138.33C85.6603 138.19 85.3196 138.12 84.937 138.12C84.5543 138.12 84.209 138.19 83.901 138.33C83.6023 138.461 83.3456 138.643 83.131 138.876C82.9256 139.109 82.7623 139.385 82.641 139.702C82.529 140.019 82.473 140.36 82.473 140.724C82.473 141.088 82.529 141.429 82.641 141.746C82.7623 142.063 82.9256 142.339 83.131 142.572C83.3456 142.805 83.6023 142.992 83.901 143.132C84.209 143.263 84.5543 143.328 84.937 143.328C85.3196 143.328 85.6603 143.263 85.959 143.132C86.267 142.992 86.5283 142.805 86.743 142.572C86.9576 142.339 87.121 142.063 87.233 141.746C87.3543 141.429 87.415 141.088 87.415 140.724ZM88.423 140.724C88.423 141.219 88.3343 141.676 88.157 142.096C87.989 142.516 87.751 142.88 87.443 143.188C87.135 143.496 86.7663 143.739 86.337 143.916C85.917 144.084 85.4503 144.168 84.937 144.168C84.433 144.168 83.9663 144.084 83.537 143.916C83.117 143.739 82.753 143.496 82.445 143.188C82.137 142.88 81.8943 142.516 81.717 142.096C81.549 141.676 81.465 141.219 81.465 140.724C81.465 140.229 81.549 139.772 81.717 139.352C81.8943 138.932 82.137 138.568 82.445 138.26C82.753 137.952 83.117 137.714 83.537 137.546C83.9663 137.369 84.433 137.28 84.937 137.28C85.4503 137.28 85.917 137.369 86.337 137.546C86.7663 137.714 87.135 137.952 87.443 138.26C87.751 138.568 87.989 138.932 88.157 139.352C88.3343 139.772 88.423 140.229 88.423 140.724Z" fill="#1D1C5C"/>
<path d="M90.3798 137.448L91.8918 142.768H91.9198L93.6698 137.448H94.6218L96.3718 142.768H96.3998L97.9118 137.448H99.0038L96.9318 144H95.8958L94.1598 138.624H94.1318L92.3958 144H91.3598L89.2878 137.448H90.3798Z" fill="#1D1C5C"/>
<path d="M101.547 134.928C101.547 135.124 101.477 135.287 101.337 135.418C101.197 135.539 101.043 135.6 100.875 135.6C100.707 135.6 100.553 135.539 100.413 135.418C100.273 135.287 100.203 135.124 100.203 134.928C100.203 134.732 100.273 134.573 100.413 134.452C100.553 134.321 100.707 134.256 100.875 134.256C101.043 134.256 101.197 134.321 101.337 134.452C101.477 134.573 101.547 134.732 101.547 134.928ZM101.337 144H100.413V137.448H101.337V144Z" fill="#1D1C5C"/>
<path d="M108.341 138.988C108.182 138.745 107.958 138.54 107.669 138.372C107.389 138.204 107.067 138.12 106.703 138.12C106.32 138.111 105.975 138.171 105.667 138.302C105.368 138.433 105.111 138.615 104.897 138.848C104.682 139.081 104.519 139.361 104.407 139.688C104.295 140.005 104.239 140.351 104.239 140.724C104.239 141.097 104.295 141.447 104.407 141.774C104.519 142.091 104.682 142.367 104.897 142.6C105.111 142.833 105.368 143.015 105.667 143.146C105.975 143.277 106.32 143.337 106.703 143.328C107.067 143.328 107.389 143.244 107.669 143.076C107.958 142.908 108.182 142.703 108.341 142.46L109.097 143.034C108.77 143.417 108.401 143.701 107.991 143.888C107.58 144.065 107.151 144.159 106.703 144.168C106.171 144.177 105.69 144.098 105.261 143.93C104.831 143.753 104.463 143.51 104.155 143.202C103.856 142.894 103.627 142.53 103.469 142.11C103.31 141.681 103.231 141.219 103.231 140.724C103.231 140.229 103.31 139.772 103.469 139.352C103.627 138.923 103.856 138.554 104.155 138.246C104.463 137.938 104.831 137.7 105.261 137.532C105.69 137.355 106.171 137.271 106.703 137.28C107.151 137.289 107.58 137.387 107.991 137.574C108.401 137.751 108.77 138.031 109.097 138.414L108.341 138.988Z" fill="#1D1C5C"/>
<path d="M114.814 138.12L110.979 143.16H114.954V144H109.634V143.328L113.47 138.288H109.83V137.448H114.814V138.12Z" fill="#1D1C5C"/>
<path fill-rule="evenodd" clip-rule="evenodd" d="M81.2186 113.673C102.791 104.898 118 83.7249 118 59C118 56.0523 117.784 53.155 117.366 50.3233L87.4131 105.196C85.7947 108.161 83.7299 110.987 81.2186 113.673ZM44.1502 116.115C23.5146 110.765 7.26465 94.5277 1.89734 73.8991C3.70192 75.7751 5.84282 77.4963 8.32002 79.0626C12.9451 81.987 17.3123 83.6125 21.4217 83.9393C25.5312 84.266 29.2886 83.8023 32.694 82.5481C36.2318 81.264 39.315 79.3518 41.9435 76.8113C44.7045 74.241 47.0085 71.4953 48.8554 68.5742L87.56 7.36084C99.0555 13.7322 108.199 23.8307 113.359 36.0249L80.3825 96.4369C78.8646 99.2176 77.1591 101.841 75.2659 104.308C73.4186 106.69 71.3302 108.612 69.0006 110.075C66.8013 111.499 64.2804 112.311 61.4378 112.509C58.7256 112.669 55.7263 111.852 52.44 110.058C48.3954 107.85 45.8335 105.03 44.7543 101.597C43.6751 98.1644 43.7491 94.3222 44.9763 90.0703L34.7145 86.9296C32.3679 93.6328 32.3851 99.7123 34.7662 105.168C36.7054 109.46 39.8334 113.109 44.1502 116.115ZM77.9761 3.11796C72.0209 1.09639 65.6385 0 59 0C30.0689 0 6.00139 20.8235 0.967804 48.3002L7.47574 50.7584C5.97844 54.9228 5.65823 58.7524 6.51512 62.2473C7.37201 65.7422 9.74783 68.721 13.6426 71.1836C16.8071 73.1845 19.7478 74.192 22.4648 74.2062C25.3142 74.1906 27.8819 73.5425 30.1681 72.2621C32.5866 70.9519 34.794 69.1673 36.7902 66.9084C38.8376 64.5685 40.7079 62.0596 42.4009 59.382L77.9761 3.11796Z" fill="#1D1C5C"/>
</svg>
